<svg width="25" height="25" xmlns="http://www.w3.org/2000/svg">
  <path d="M 12.158 0 C 5.443 0 0 5.443 0 12.158 C 0 18.873 5.443 24.317 12.158 24.317 C 18.873 24.317 24.317 18.873 24.317 12.158 C 24.317 5.443 18.873 0 12.158 0 Z M 19.379 19.379 C 18.44 20.317 17.348 21.054 16.132 21.568 C 15.824 21.699 15.51 21.813 15.192 21.912 L 15.192 20.09 C 15.192 19.132 14.864 18.428 14.206 17.976 C 14.618 17.937 14.996 17.881 15.34 17.81 C 15.685 17.739 16.049 17.636 16.433 17.501 C 16.817 17.367 17.161 17.207 17.466 17.021 C 17.77 16.835 18.063 16.593 18.344 16.296 C 18.625 15.999 18.861 15.663 19.051 15.287 C 19.241 14.911 19.391 14.46 19.502 13.934 C 19.613 13.407 19.668 12.827 19.668 12.194 C 19.668 10.967 19.268 9.922 18.469 9.059 C 18.833 8.11 18.794 7.077 18.35 5.96 L 18.053 5.925 C 17.848 5.901 17.478 5.988 16.943 6.186 C 16.409 6.384 15.809 6.708 15.144 7.16 C 14.203 6.898 13.225 6.768 12.212 6.768 C 11.191 6.768 10.217 6.898 9.291 7.16 C 8.871 6.875 8.474 6.639 8.098 6.453 C 7.722 6.267 7.421 6.141 7.195 6.073 C 6.97 6.006 6.76 5.964 6.566 5.949 C 6.372 5.933 6.247 5.929 6.192 5.937 C 6.136 5.945 6.097 5.953 6.073 5.96 C 5.63 7.085 5.59 8.118 5.954 9.059 C 5.155 9.922 4.755 10.967 4.755 12.194 C 4.755 12.827 4.811 13.407 4.921 13.934 C 5.032 14.46 5.183 14.911 5.373 15.287 C 5.563 15.663 5.798 15.999 6.079 16.296 C 6.36 16.593 6.653 16.835 6.958 17.021 C 7.263 17.207 7.607 17.367 7.991 17.501 C 8.375 17.636 8.739 17.739 9.083 17.81 C 9.427 17.881 9.805 17.937 10.217 17.976 C 9.568 18.42 9.243 19.124 9.243 20.09 L 9.243 21.948 C 8.885 21.841 8.531 21.715 8.184 21.568 C 6.969 21.054 5.876 20.317 4.938 19.379 C 4 18.44 3.263 17.348 2.749 16.132 C 2.217 14.875 1.947 13.538 1.947 12.158 C 1.947 10.779 2.217 9.442 2.749 8.184 C 3.263 6.969 4 5.877 4.938 4.938 C 5.876 4 6.969 3.263 8.184 2.749 C 9.442 2.217 10.779 1.947 12.158 1.947 C 13.538 1.947 14.875 2.217 16.133 2.749 C 17.348 3.263 18.44 4 19.379 4.938 C 20.317 5.876 21.054 6.969 21.568 8.184 C 22.1 9.442 22.37 10.779 22.37 12.158 C 22.37 13.538 22.1 14.875 21.568 16.132 C 21.054 17.348 20.317 18.44 19.379 19.379 Z" style=""/>
</svg>