<svg height="8" viewBox="0 0 8 8" width="8" xmlns="http://www.w3.org/2000/svg"><g fill="currentColor" fill-rule="evenodd"><path d="m3.5 7c-1.93 0-3.5-1.57-3.5-3.5s1.57-3.5 3.5-3.5 3.5 1.57 3.5 3.5-1.57 3.5-3.5 3.5zm0-6c-1.3785 0-2.5 1.1215-2.5 2.5s1.1215 2.5 2.5 2.5 2.5-1.1215 2.5-2.5-1.1215-2.5-2.5-2.5z" fill-rule="nonzero"/><path d="m7.8535 7.1465-1.1965-1.1965c-.2055.2645-.4425.5015-.707.707l1.1965 1.1965c.0975.0975.2255.1465.3535.1465s.256-.049.3535-.1465c.1955-.1955.1955-.5115 0-.707z"/></g></svg>